<svg id="Capa_1" enable-background="new 0 0 512.002 512.002" height="512" viewBox="0 0 512.002 512.002" width="512" xmlns="http://www.w3.org/2000/svg"><g><path d="m261.923 325.959c.833 5.484 5.951 9.213 11.387 8.387 5.461-.829 9.216-5.927 8.387-11.387-1.002-6.602-2.188-13.382-3.524-20.152-1.07-5.418-6.331-8.941-11.748-7.873-5.418 1.07-8.943 6.329-7.873 11.748 1.279 6.481 2.413 12.968 3.371 19.277z"/><path d="m267.654 453.75c5.453.954 10.625-2.689 11.58-8.119 1.199-6.83 2.257-13.616 3.143-20.17.739-5.473-3.098-10.509-8.571-11.249-5.469-.738-10.509 3.098-11.249 8.571-.851 6.293-1.867 12.815-3.021 19.387-.957 5.44 2.678 10.624 8.118 11.58z"/><path d="m285.877 384.543c.083-2.898.125-5.772.125-8.545-.001-3.962-.086-8.049-.254-12.146-.225-5.519-4.881-9.784-10.398-9.585-5.519.226-9.81 4.882-9.585 10.399.156 3.83.236 7.645.237 11.335 0 2.58-.039 5.261-.117 7.97-.158 5.521 4.189 10.124 9.71 10.282.098.003.194.004.292.004 5.39 0 9.835-4.291 9.99-9.714z"/><path d="m246.515 259.161c.011.034 1.156 3.484 2.861 9.423 1.518 5.29 7.037 8.381 12.37 6.854 5.309-1.524 8.377-7.063 6.854-12.371-1.835-6.39-3.06-10.075-3.11-10.226-.011-.032-1.1-3.313-2.733-8.979-1.53-5.307-7.074-8.367-12.379-6.838-5.307 1.53-8.368 7.072-6.838 12.379 1.76 6.105 2.927 9.615 2.975 9.758z"/><path d="m249.391 89.649c.843-6.284 1.853-12.808 3.003-19.388.951-5.44-2.688-10.621-8.129-11.572-5.442-.948-10.621 2.688-11.572 8.129-1.196 6.84-2.247 13.627-3.125 20.173-.734 5.474 3.108 10.506 8.582 11.24 5.461.733 10.505-3.097 11.241-8.582z"/><path d="m226.115 127.925c-.074 2.716-.112 5.433-.113 8.076 0 4.103.092 8.351.273 12.628.228 5.374 4.656 9.577 9.984 9.577.143 0 .287-.003.431-.009 5.518-.234 9.802-4.896 9.567-10.415-.169-3.996-.255-7.96-.255-11.779 0-2.462.036-4.995.105-7.531.15-5.521-4.202-10.119-9.723-10.27-5.55-.167-10.118 4.204-10.269 9.723z"/><path d="m233.927 209.669c1.078 5.436 6.361 8.936 11.755 7.862 5.417-1.075 8.938-6.338 7.862-11.755-1.288-6.491-2.43-12.977-3.394-19.276-.835-5.46-5.938-9.207-11.397-8.373-5.459.835-9.208 5.938-8.373 11.396 1.009 6.591 2.202 13.368 3.547 20.146z"/><path d="m10.002 446.001h82.019c4.899 4.4 10.297 8.119 16.119 11.143-1.308 12.572-2.137 29.516-2.137 44.857 0 5.522 4.477 10 10 10h280c5.522 0 10-4.478 10-10 0-58.632-12.333-90.008-23.214-117.69-10.059-25.593-18.746-47.694-16.798-87.825 1.131-23.34 8.29-44.19 16.581-68.334 2.934-8.545 5.914-17.234 8.731-26.335l43.095 118.161c1.759 4.824 6.874 7.514 11.819 6.274l58.21-14.55c2.598-.649 4.827-2.313 6.188-4.619 1.361-2.307 1.74-5.062 1.053-7.649l-16.595-62.464c-1.418-5.339-6.905-8.513-12.232-7.098-5.338 1.418-8.516 6.895-7.098 12.232l13.989 52.656-39.63 9.905-49.952-136.959c3.92-19.178 5.852-38.089 5.852-57.704 0-5.522-4.478-10-10-10s-10 4.478-10 10c0 43.243-9.59 74.501-22.347 111.655-8.42 24.521-16.373 47.683-17.642 73.859-2.156 44.42 7.713 69.528 18.161 96.111 10.059 25.591 20.438 51.996 21.699 100.374h-116.736c.516-1.983 1.072-4.159 1.659-6.529 1.327-5.361-1.942-10.783-7.303-12.111-5.363-1.329-10.783 1.943-12.111 7.303-1.121 4.526-2.129 8.352-2.942 11.338h-122.325c.215-9.735.726-19.521 1.442-27.826 5.474 1.2 11.063 1.826 16.725 1.826h71.72c16.542 0 30-13.458 30-30v-40c0-16.542-13.458-30-30-30h-11.004c-4.031-19.774-19.772-35.334-39.636-39.113.961-9.793 1.172-20.144.629-31.372-1.269-26.178-9.222-49.339-17.641-73.86-11.75-34.219-22.347-66.725-22.347-111.655 0-5.522-4.477-10-10-10s-10 4.478-10 10c0 19.616 1.932 38.525 5.851 57.697l-49.95 136.969-39.63-9.905s48.27-181.688 48.281-181.736c7.801-31.22 35.726-53.023 67.908-53.023h37.54c24.146 0 44.349-17.206 48.996-40.01h17.87c-.549 2.116-1.14 4.437-1.768 6.979-1.323 5.361 1.95 10.781 7.313 12.105 5.351 1.318 10.779-1.938 12.105-7.313 1.163-4.711 2.209-8.683 3.046-11.762h23.443c4.646 22.794 24.85 40 48.995 40h37.54c32.183 0 60.107 21.805 67.908 53.023.013.048 11.18 42.088 11.18 42.088 1.418 5.337 6.893 8.518 12.232 7.098 5.338-1.418 8.516-6.895 7.098-12.232l-11.125-41.876c-10.057-40.104-45.941-68.103-87.294-68.103h-37.54c-16.542 0-30-13.458-30-30 0-5.522-4.478-10-10-10-25.018 0-54.966 0-80 0-5.523 0-10 4.478-10 10 0 16.542-13.458 30-30 30h-37.54c-41.353 0-77.238 28.001-87.293 68.103l-50.831 191.33c-1.433 5.394 1.83 10.916 7.24 12.269l58.21 14.55c4.953 1.24 10.062-1.456 11.819-6.274l43.096-118.161c2.817 9.101 5.797 17.79 8.731 26.335 8.29 24.144 15.45 44.995 16.581 68.333.516 10.658.297 20.389-.661 29.517h-1.071c-19.483 0-37.88 7.071-52.262 20h-82.019c-5.523 0-10 4.478-10 10v80c0 5.521 4.477 9.998 10 9.998zm10-80h76c2.652 0 5.196-1.054 7.071-2.929 11.009-11.009 25.644-17.071 41.209-17.071h11.72c13.038 0 24.159 8.359 28.287 20h-28.287c-5.523 0-10 4.478-10 10s4.477 10 10 10h60c5.514 0 10 4.486 10 10v40c0 5.514-4.486 10-10 10h-71.72c-15.319 0-30.18-6.041-41.209-17.07-1.875-1.876-4.419-2.93-7.071-2.93h-76v-60z"/><path d="m346.002 136.001c0-5.522-4.478-10-10-10h-35.857l2.929-2.929c3.905-3.905 3.905-10.237 0-14.143-3.906-3.904-10.236-3.904-14.143 0l-20 20c-3.96 3.96-3.821 10.322 0 14.143l20 20c3.907 3.905 10.236 3.904 14.143 0 3.905-3.905 3.905-10.237 0-14.143l-2.929-2.929h35.857c5.523.001 10-4.476 10-9.999z"/><circle cx="474.002" cy="196.001" r="10"/></g></svg>